<?xml version="1.0" encoding="UTF-8" standalone="no"?>
<!DOCTYPE svg PUBLIC "-//W3C//DTD SVG 1.1//EN"
 "http://www.w3.org/Graphics/SVG/1.1/DTD/svg11.dtd">
<!-- Generated by graphviz version 2.38.0 (20140413.2041)
 -->
<!-- Title: controllers_diagram Pages: 1 -->
<svg width="735pt" height="659pt"
 viewBox="0.00 0.00 735.00 659.00" xmlns="http://www.w3.org/2000/svg" xmlns:xlink="http://www.w3.org/1999/xlink">
<g id="graph0" class="graph" transform="scale(1 1) rotate(0) translate(251 389)">
<title>controllers_diagram</title>
<polygon fill="none" stroke="none" points="-251,270 -251,-389 484,-389 484,270 -251,270"/>
<!-- _diagram_info -->
<g id="node1" class="node"><title>_diagram_info</title>
<text text-anchor="start" x="274" y="-44.6" font-family="Times,serif" font-size="13.00">Controllers diagram</text>
<text text-anchor="start" x="274" y="-30.6" font-family="Times,serif" font-size="13.00">Date: Oct 22 2016 &#45; 19:25</text>
<text text-anchor="start" x="274" y="-16.6" font-family="Times,serif" font-size="13.00">Migration version: 20161022010308</text>
<text text-anchor="start" x="274" y="-2.6" font-family="Times,serif" font-size="13.00">Generated by RailRoady 1.5.2</text>
<text text-anchor="start" x="274" y="11.4" font-family="Times,serif" font-size="13.00">http://railroady.prestonlee.com</text>
</g>
<!-- PlayersController -->
<g id="node2" class="node"><title>PlayersController</title>
<path fill="none" stroke="black" d="M-216,-1C-216,-1 -128,-1 -128,-1 -122,-1 -116,-7 -116,-13 -116,-13 -116,-217 -116,-217 -116,-223 -122,-229 -128,-229 -128,-229 -216,-229 -216,-229 -222,-229 -228,-223 -228,-217 -228,-217 -228,-13 -228,-13 -228,-7 -222,-1 -216,-1"/>
<text text-anchor="middle" x="-172" y="-213.8" font-family="Times,serif" font-size="14.00">PlayersController</text>
<polyline fill="none" stroke="black" points="-228,-206 -116,-206 "/>
<text text-anchor="start" x="-220" y="-190.8" font-family="Times,serif" font-size="14.00">create</text>
<text text-anchor="start" x="-220" y="-175.8" font-family="Times,serif" font-size="14.00">destroy</text>
<text text-anchor="start" x="-220" y="-160.8" font-family="Times,serif" font-size="14.00">edit</text>
<text text-anchor="start" x="-220" y="-145.8" font-family="Times,serif" font-size="14.00">index</text>
<text text-anchor="start" x="-220" y="-130.8" font-family="Times,serif" font-size="14.00">new</text>
<text text-anchor="start" x="-220" y="-115.8" font-family="Times,serif" font-size="14.00">search</text>
<text text-anchor="start" x="-220" y="-100.8" font-family="Times,serif" font-size="14.00">show</text>
<text text-anchor="start" x="-220" y="-85.8" font-family="Times,serif" font-size="14.00">update</text>
<polyline fill="none" stroke="black" points="-228,-78 -116,-78 "/>
<polyline fill="none" stroke="black" points="-228,-54 -116,-54 "/>
<text text-anchor="start" x="-220" y="-38.8" font-family="Times,serif" font-size="14.00">_layout</text>
<text text-anchor="start" x="-220" y="-23.8" font-family="Times,serif" font-size="14.00">player_params</text>
<text text-anchor="start" x="-220" y="-8.8" font-family="Times,serif" font-size="14.00">set_player</text>
</g>
<!-- MainController -->
<g id="node3" class="node"><title>MainController</title>
<path fill="none" stroke="black" d="M88.5,227C88.5,227 165.5,227 165.5,227 171.5,227 177.5,221 177.5,215 177.5,215 177.5,131 177.5,131 177.5,125 171.5,119 165.5,119 165.5,119 88.5,119 88.5,119 82.5,119 76.5,125 76.5,131 76.5,131 76.5,215 76.5,215 76.5,221 82.5,227 88.5,227"/>
<text text-anchor="middle" x="127" y="134.2" font-family="Times,serif" font-size="14.00">MainController</text>
<polyline fill="none" stroke="black" points="76.5,142 177.5,142 "/>
<text text-anchor="start" x="84.5" y="157.2" font-family="Times,serif" font-size="14.00">home</text>
<text text-anchor="start" x="84.5" y="172.2" font-family="Times,serif" font-size="14.00">unregistered</text>
<polyline fill="none" stroke="black" points="76.5,180 177.5,180 "/>
<polyline fill="none" stroke="black" points="76.5,204 177.5,204 "/>
<text text-anchor="start" x="84.5" y="219.2" font-family="Times,serif" font-size="14.00">_layout</text>
</g>
<!-- DetailsMatchesController -->
<g id="node4" class="node"><title>DetailsMatchesController</title>
<path fill="none" stroke="black" d="M88.5,75.5C88.5,75.5 221.5,75.5 221.5,75.5 227.5,75.5 233.5,69.5 233.5,63.5 233.5,63.5 233.5,-125.5 233.5,-125.5 233.5,-131.5 227.5,-137.5 221.5,-137.5 221.5,-137.5 88.5,-137.5 88.5,-137.5 82.5,-137.5 76.5,-131.5 76.5,-125.5 76.5,-125.5 76.5,63.5 76.5,63.5 76.5,69.5 82.5,75.5 88.5,75.5"/>
<text text-anchor="middle" x="155" y="-122.3" font-family="Times,serif" font-size="14.00">DetailsMatchesController</text>
<polyline fill="none" stroke="black" points="76.5,-114.5 233.5,-114.5 "/>
<text text-anchor="start" x="84.5" y="-99.3" font-family="Times,serif" font-size="14.00">create</text>
<text text-anchor="start" x="84.5" y="-84.3" font-family="Times,serif" font-size="14.00">destroy</text>
<text text-anchor="start" x="84.5" y="-69.3" font-family="Times,serif" font-size="14.00">edit</text>
<text text-anchor="start" x="84.5" y="-54.3" font-family="Times,serif" font-size="14.00">index</text>
<text text-anchor="start" x="84.5" y="-39.3" font-family="Times,serif" font-size="14.00">new</text>
<text text-anchor="start" x="84.5" y="-24.3" font-family="Times,serif" font-size="14.00">show</text>
<text text-anchor="start" x="84.5" y="-9.3" font-family="Times,serif" font-size="14.00">update</text>
<polyline fill="none" stroke="black" points="76.5,-1.5 233.5,-1.5 "/>
<polyline fill="none" stroke="black" points="76.5,22.5 233.5,22.5 "/>
<text text-anchor="start" x="84.5" y="37.7" font-family="Times,serif" font-size="14.00">_layout</text>
<text text-anchor="start" x="84.5" y="52.7" font-family="Times,serif" font-size="14.00">details_match_params</text>
<text text-anchor="start" x="84.5" y="67.7" font-family="Times,serif" font-size="14.00">set_details_match</text>
</g>
<!-- EventsController -->
<g id="node5" class="node"><title>EventsController</title>
<path fill="none" stroke="black" d="M-234.5,246.5C-234.5,246.5 -149.5,246.5 -149.5,246.5 -143.5,246.5 -137.5,240.5 -137.5,234.5 -137.5,234.5 -137.5,45.5 -137.5,45.5 -137.5,39.5 -143.5,33.5 -149.5,33.5 -149.5,33.5 -234.5,33.5 -234.5,33.5 -240.5,33.5 -246.5,39.5 -246.5,45.5 -246.5,45.5 -246.5,234.5 -246.5,234.5 -246.5,240.5 -240.5,246.5 -234.5,246.5"/>
<text text-anchor="middle" x="-192" y="48.7" font-family="Times,serif" font-size="14.00">EventsController</text>
<polyline fill="none" stroke="black" points="-246.5,56.5 -137.5,56.5 "/>
<text text-anchor="start" x="-238.5" y="71.7" font-family="Times,serif" font-size="14.00">create</text>
<text text-anchor="start" x="-238.5" y="86.7" font-family="Times,serif" font-size="14.00">destroy</text>
<text text-anchor="start" x="-238.5" y="101.7" font-family="Times,serif" font-size="14.00">edit</text>
<text text-anchor="start" x="-238.5" y="116.7" font-family="Times,serif" font-size="14.00">index</text>
<text text-anchor="start" x="-238.5" y="131.7" font-family="Times,serif" font-size="14.00">new</text>
<text text-anchor="start" x="-238.5" y="146.7" font-family="Times,serif" font-size="14.00">show</text>
<text text-anchor="start" x="-238.5" y="161.7" font-family="Times,serif" font-size="14.00">update</text>
<polyline fill="none" stroke="black" points="-246.5,169.5 -137.5,169.5 "/>
<polyline fill="none" stroke="black" points="-246.5,193.5 -137.5,193.5 "/>
<text text-anchor="start" x="-238.5" y="208.7" font-family="Times,serif" font-size="14.00">_layout</text>
<text text-anchor="start" x="-238.5" y="223.7" font-family="Times,serif" font-size="14.00">event_params</text>
<text text-anchor="start" x="-238.5" y="238.7" font-family="Times,serif" font-size="14.00">set_event</text>
</g>
<!-- ApplicationController -->
<g id="node6" class="node"><title>ApplicationController</title>
<path fill="none" stroke="black" d="M-235,-267C-235,-267 -123,-267 -123,-267 -117,-267 -111,-273 -111,-279 -111,-279 -111,-349 -111,-349 -111,-355 -117,-361 -123,-361 -123,-361 -235,-361 -235,-361 -241,-361 -247,-355 -247,-349 -247,-349 -247,-279 -247,-279 -247,-273 -241,-267 -235,-267"/>
<text text-anchor="middle" x="-179" y="-345.8" font-family="Times,serif" font-size="14.00">ApplicationController</text>
<polyline fill="none" stroke="black" points="-247,-338 -111,-338 "/>
<polyline fill="none" stroke="black" points="-247,-314 -111,-314 "/>
<polyline fill="none" stroke="black" points="-247,-290 -111,-290 "/>
<text text-anchor="start" x="-239" y="-274.8" font-family="Times,serif" font-size="14.00">_layout</text>
</g>
<!-- ChampionshipsController -->
<g id="node7" class="node"><title>ChampionshipsController</title>
<path fill="none" stroke="black" d="M183.5,-171.5C183.5,-171.5 316.5,-171.5 316.5,-171.5 322.5,-171.5 328.5,-177.5 328.5,-183.5 328.5,-183.5 328.5,-372.5 328.5,-372.5 328.5,-378.5 322.5,-384.5 316.5,-384.5 316.5,-384.5 183.5,-384.5 183.5,-384.5 177.5,-384.5 171.5,-378.5 171.5,-372.5 171.5,-372.5 171.5,-183.5 171.5,-183.5 171.5,-177.5 177.5,-171.5 183.5,-171.5"/>
<text text-anchor="middle" x="250" y="-369.3" font-family="Times,serif" font-size="14.00">ChampionshipsController</text>
<polyline fill="none" stroke="black" points="171.5,-361.5 328.5,-361.5 "/>
<text text-anchor="start" x="179.5" y="-346.3" font-family="Times,serif" font-size="14.00">create</text>
<text text-anchor="start" x="179.5" y="-331.3" font-family="Times,serif" font-size="14.00">destroy</text>
<text text-anchor="start" x="179.5" y="-316.3" font-family="Times,serif" font-size="14.00">edit</text>
<text text-anchor="start" x="179.5" y="-301.3" font-family="Times,serif" font-size="14.00">index</text>
<text text-anchor="start" x="179.5" y="-286.3" font-family="Times,serif" font-size="14.00">new</text>
<text text-anchor="start" x="179.5" y="-271.3" font-family="Times,serif" font-size="14.00">show</text>
<text text-anchor="start" x="179.5" y="-256.3" font-family="Times,serif" font-size="14.00">update</text>
<polyline fill="none" stroke="black" points="171.5,-248.5 328.5,-248.5 "/>
<polyline fill="none" stroke="black" points="171.5,-224.5 328.5,-224.5 "/>
<text text-anchor="start" x="179.5" y="-209.3" font-family="Times,serif" font-size="14.00">_layout</text>
<text text-anchor="start" x="179.5" y="-194.3" font-family="Times,serif" font-size="14.00">championship_params</text>
<text text-anchor="start" x="179.5" y="-179.3" font-family="Times,serif" font-size="14.00">set_championship</text>
</g>
<!-- TeamsController -->
<g id="node8" class="node"><title>TeamsController</title>
<path fill="none" stroke="black" d="M278.5,265.5C278.5,265.5 363.5,265.5 363.5,265.5 369.5,265.5 375.5,259.5 375.5,253.5 375.5,253.5 375.5,64.5 375.5,64.5 375.5,58.5 369.5,52.5 363.5,52.5 363.5,52.5 278.5,52.5 278.5,52.5 272.5,52.5 266.5,58.5 266.5,64.5 266.5,64.5 266.5,253.5 266.5,253.5 266.5,259.5 272.5,265.5 278.5,265.5"/>
<text text-anchor="middle" x="321" y="67.7" font-family="Times,serif" font-size="14.00">TeamsController</text>
<polyline fill="none" stroke="black" points="266.5,75.5 375.5,75.5 "/>
<text text-anchor="start" x="274.5" y="90.7" font-family="Times,serif" font-size="14.00">create</text>
<text text-anchor="start" x="274.5" y="105.7" font-family="Times,serif" font-size="14.00">destroy</text>
<text text-anchor="start" x="274.5" y="120.7" font-family="Times,serif" font-size="14.00">edit</text>
<text text-anchor="start" x="274.5" y="135.7" font-family="Times,serif" font-size="14.00">index</text>
<text text-anchor="start" x="274.5" y="150.7" font-family="Times,serif" font-size="14.00">new</text>
<text text-anchor="start" x="274.5" y="165.7" font-family="Times,serif" font-size="14.00">show</text>
<text text-anchor="start" x="274.5" y="180.7" font-family="Times,serif" font-size="14.00">update</text>
<polyline fill="none" stroke="black" points="266.5,188.5 375.5,188.5 "/>
<polyline fill="none" stroke="black" points="266.5,212.5 375.5,212.5 "/>
<text text-anchor="start" x="274.5" y="227.7" font-family="Times,serif" font-size="14.00">_layout</text>
<text text-anchor="start" x="274.5" y="242.7" font-family="Times,serif" font-size="14.00">set_team</text>
<text text-anchor="start" x="274.5" y="257.7" font-family="Times,serif" font-size="14.00">team_params</text>
</g>
<!-- MatchesController -->
<g id="node9" class="node"><title>MatchesController</title>
<path fill="none" stroke="black" d="M-63.5,170C-63.5,170 31.5,170 31.5,170 37.5,170 43.5,164 43.5,158 43.5,158 43.5,-136 43.5,-136 43.5,-142 37.5,-148 31.5,-148 31.5,-148 -63.5,-148 -63.5,-148 -69.5,-148 -75.5,-142 -75.5,-136 -75.5,-136 -75.5,158 -75.5,158 -75.5,164 -69.5,170 -63.5,170"/>
<text text-anchor="middle" x="-16" y="-132.8" font-family="Times,serif" font-size="14.00">MatchesController</text>
<polyline fill="none" stroke="black" points="-75.5,-125 43.5,-125 "/>
<text text-anchor="start" x="-67.5" y="-109.8" font-family="Times,serif" font-size="14.00">create</text>
<text text-anchor="start" x="-67.5" y="-94.8" font-family="Times,serif" font-size="14.00">destroy</text>
<text text-anchor="start" x="-67.5" y="-79.8" font-family="Times,serif" font-size="14.00">details</text>
<text text-anchor="start" x="-67.5" y="-64.8" font-family="Times,serif" font-size="14.00">details_form</text>
<text text-anchor="start" x="-67.5" y="-49.8" font-family="Times,serif" font-size="14.00">edit</text>
<text text-anchor="start" x="-67.5" y="-34.8" font-family="Times,serif" font-size="14.00">generate</text>
<text text-anchor="start" x="-67.5" y="-19.8" font-family="Times,serif" font-size="14.00">generate_form</text>
<text text-anchor="start" x="-67.5" y="-4.8" font-family="Times,serif" font-size="14.00">generate_matches</text>
<text text-anchor="start" x="-67.5" y="10.2" font-family="Times,serif" font-size="14.00">index</text>
<text text-anchor="start" x="-67.5" y="25.2" font-family="Times,serif" font-size="14.00">new</text>
<text text-anchor="start" x="-67.5" y="40.2" font-family="Times,serif" font-size="14.00">show</text>
<text text-anchor="start" x="-67.5" y="55.2" font-family="Times,serif" font-size="14.00">update</text>
<polyline fill="none" stroke="black" points="-75.5,63 43.5,63 "/>
<polyline fill="none" stroke="black" points="-75.5,87 43.5,87 "/>
<text text-anchor="start" x="-67.5" y="102.2" font-family="Times,serif" font-size="14.00">_layout</text>
<text text-anchor="start" x="-67.5" y="117.2" font-family="Times,serif" font-size="14.00">get_dates_matche</text>
<text text-anchor="start" x="-67.5" y="132.2" font-family="Times,serif" font-size="14.00">match_params</text>
<text text-anchor="start" x="-67.5" y="147.2" font-family="Times,serif" font-size="14.00">set_match</text>
<text text-anchor="start" x="-67.5" y="162.2" font-family="Times,serif" font-size="14.00">write_matches</text>
</g>
<!-- Users::OmniauthCallbacksController -->
<g id="node10" class="node"><title>Users::OmniauthCallbacksController</title>
<path fill="none" stroke="black" d="M-64,-191C-64,-191 130,-191 130,-191 136,-191 142,-197 142,-203 142,-203 142,-317 142,-317 142,-323 136,-329 130,-329 130,-329 -64,-329 -64,-329 -70,-329 -76,-323 -76,-317 -76,-317 -76,-203 -76,-203 -76,-197 -70,-191 -64,-191"/>
<text text-anchor="middle" x="33" y="-313.8" font-family="Times,serif" font-size="14.00">Users::OmniauthCallbacksController</text>
<polyline fill="none" stroke="black" points="-76,-306 142,-306 "/>
<text text-anchor="start" x="-68" y="-290.8" font-family="Times,serif" font-size="14.00">custom_sign_up</text>
<text text-anchor="start" x="-68" y="-275.8" font-family="Times,serif" font-size="14.00">facebook</text>
<text text-anchor="start" x="-68" y="-260.8" font-family="Times,serif" font-size="14.00">failure</text>
<polyline fill="none" stroke="black" points="-76,-253 142,-253 "/>
<polyline fill="none" stroke="black" points="-76,-229 142,-229 "/>
<text text-anchor="start" x="-68" y="-213.8" font-family="Times,serif" font-size="14.00">_layout</text>
<text text-anchor="start" x="-68" y="-198.8" font-family="Times,serif" font-size="14.00">user_params</text>
</g>
</g>
</svg>
