<?xml version="1.0" encoding="UTF-8" standalone="no"?>
<!DOCTYPE svg PUBLIC "-//W3C//DTD SVG 1.1//EN"
 "http://www.w3.org/Graphics/SVG/1.1/DTD/svg11.dtd">
<!-- Generated by graphviz version 2.38.0 (20140413.2041)
 -->
<!-- Title: controllers_diagram Pages: 1 -->
<svg width="720pt" height="716pt"
 viewBox="0.00 0.00 720.00 716.00" xmlns="http://www.w3.org/2000/svg" xmlns:xlink="http://www.w3.org/1999/xlink">
<g id="graph0" class="graph" transform="scale(1 1) rotate(0) translate(251 465)">
<title>controllers_diagram</title>
<polygon fill="none" stroke="none" points="-251,251 -251,-465 469,-465 469,251 -251,251"/>
<!-- _diagram_info -->
<g id="node1" class="node"><title>_diagram_info</title>
<text text-anchor="start" x="103" y="145.4" font-family="Times,serif" font-size="13.00">Controllers diagram</text>
<text text-anchor="start" x="103" y="159.4" font-family="Times,serif" font-size="13.00">Date: Nov 03 2016 &#45; 19:55</text>
<text text-anchor="start" x="103" y="173.4" font-family="Times,serif" font-size="13.00">Migration version: 20161022010308</text>
<text text-anchor="start" x="103" y="187.4" font-family="Times,serif" font-size="13.00">Generated by RailRoady 1.5.2</text>
<text text-anchor="start" x="103" y="201.4" font-family="Times,serif" font-size="13.00">http://railroady.prestonlee.com</text>
</g>
<!-- PlayersController -->
<g id="node2" class="node"><title>PlayersController</title>
<path fill="none" stroke="black" d="M-235,-1C-235,-1 -147,-1 -147,-1 -141,-1 -135,-7 -135,-13 -135,-13 -135,-217 -135,-217 -135,-223 -141,-229 -147,-229 -147,-229 -235,-229 -235,-229 -241,-229 -247,-223 -247,-217 -247,-217 -247,-13 -247,-13 -247,-7 -241,-1 -235,-1"/>
<text text-anchor="middle" x="-191" y="-213.8" font-family="Times,serif" font-size="14.00">PlayersController</text>
<polyline fill="none" stroke="black" points="-247,-206 -135,-206 "/>
<text text-anchor="start" x="-239" y="-190.8" font-family="Times,serif" font-size="14.00">create</text>
<text text-anchor="start" x="-239" y="-175.8" font-family="Times,serif" font-size="14.00">destroy</text>
<text text-anchor="start" x="-239" y="-160.8" font-family="Times,serif" font-size="14.00">edit</text>
<text text-anchor="start" x="-239" y="-145.8" font-family="Times,serif" font-size="14.00">index</text>
<text text-anchor="start" x="-239" y="-130.8" font-family="Times,serif" font-size="14.00">new</text>
<text text-anchor="start" x="-239" y="-115.8" font-family="Times,serif" font-size="14.00">search</text>
<text text-anchor="start" x="-239" y="-100.8" font-family="Times,serif" font-size="14.00">show</text>
<text text-anchor="start" x="-239" y="-85.8" font-family="Times,serif" font-size="14.00">update</text>
<polyline fill="none" stroke="black" points="-247,-78 -135,-78 "/>
<polyline fill="none" stroke="black" points="-247,-54 -135,-54 "/>
<text text-anchor="start" x="-239" y="-38.8" font-family="Times,serif" font-size="14.00">_layout</text>
<text text-anchor="start" x="-239" y="-23.8" font-family="Times,serif" font-size="14.00">player_params</text>
<text text-anchor="start" x="-239" y="-8.8" font-family="Times,serif" font-size="14.00">set_player</text>
</g>
<!-- MainController -->
<g id="node3" class="node"><title>MainController</title>
<path fill="none" stroke="black" d="M278.5,94C278.5,94 355.5,94 355.5,94 361.5,94 367.5,88 367.5,82 367.5,82 367.5,-2 367.5,-2 367.5,-8 361.5,-14 355.5,-14 355.5,-14 278.5,-14 278.5,-14 272.5,-14 266.5,-8 266.5,-2 266.5,-2 266.5,82 266.5,82 266.5,88 272.5,94 278.5,94"/>
<text text-anchor="middle" x="317" y="1.2" font-family="Times,serif" font-size="14.00">MainController</text>
<polyline fill="none" stroke="black" points="266.5,9 367.5,9 "/>
<text text-anchor="start" x="274.5" y="24.2" font-family="Times,serif" font-size="14.00">home</text>
<text text-anchor="start" x="274.5" y="39.2" font-family="Times,serif" font-size="14.00">unregistered</text>
<polyline fill="none" stroke="black" points="266.5,47 367.5,47 "/>
<polyline fill="none" stroke="black" points="266.5,71 367.5,71 "/>
<text text-anchor="start" x="274.5" y="86.2" font-family="Times,serif" font-size="14.00">_layout</text>
</g>
<!-- DetailsMatchesController -->
<g id="node4" class="node"><title>DetailsMatchesController</title>
<path fill="none" stroke="black" d="M-82.5,132C-82.5,132 50.5,132 50.5,132 56.5,132 62.5,126 62.5,120 62.5,120 62.5,-114 62.5,-114 62.5,-120 56.5,-126 50.5,-126 50.5,-126 -82.5,-126 -82.5,-126 -88.5,-126 -94.5,-120 -94.5,-114 -94.5,-114 -94.5,120 -94.5,120 -94.5,126 -88.5,132 -82.5,132"/>
<text text-anchor="middle" x="-16" y="-110.8" font-family="Times,serif" font-size="14.00">DetailsMatchesController</text>
<polyline fill="none" stroke="black" points="-94.5,-103 62.5,-103 "/>
<text text-anchor="start" x="-86.5" y="-87.8" font-family="Times,serif" font-size="14.00">create_detail</text>
<text text-anchor="start" x="-86.5" y="-72.8" font-family="Times,serif" font-size="14.00">destroy</text>
<text text-anchor="start" x="-86.5" y="-57.8" font-family="Times,serif" font-size="14.00">details_create</text>
<text text-anchor="start" x="-86.5" y="-42.8" font-family="Times,serif" font-size="14.00">details_form</text>
<text text-anchor="start" x="-86.5" y="-27.8" font-family="Times,serif" font-size="14.00">details_matches_path</text>
<text text-anchor="start" x="-86.5" y="-12.8" font-family="Times,serif" font-size="14.00">edit</text>
<text text-anchor="start" x="-86.5" y="2.2" font-family="Times,serif" font-size="14.00">index</text>
<text text-anchor="start" x="-86.5" y="17.2" font-family="Times,serif" font-size="14.00">new_detail</text>
<text text-anchor="start" x="-86.5" y="32.2" font-family="Times,serif" font-size="14.00">show</text>
<text text-anchor="start" x="-86.5" y="47.2" font-family="Times,serif" font-size="14.00">update</text>
<polyline fill="none" stroke="black" points="-94.5,55 62.5,55 "/>
<polyline fill="none" stroke="black" points="-94.5,79 62.5,79 "/>
<text text-anchor="start" x="-86.5" y="94.2" font-family="Times,serif" font-size="14.00">_layout</text>
<text text-anchor="start" x="-86.5" y="109.2" font-family="Times,serif" font-size="14.00">details_match_params</text>
<text text-anchor="start" x="-86.5" y="124.2" font-family="Times,serif" font-size="14.00">set_details_match</text>
</g>
<!-- EventsController -->
<g id="node5" class="node"><title>EventsController</title>
<path fill="none" stroke="black" d="M-234.5,246.5C-234.5,246.5 -149.5,246.5 -149.5,246.5 -143.5,246.5 -137.5,240.5 -137.5,234.5 -137.5,234.5 -137.5,45.5 -137.5,45.5 -137.5,39.5 -143.5,33.5 -149.5,33.5 -149.5,33.5 -234.5,33.5 -234.5,33.5 -240.5,33.5 -246.5,39.5 -246.5,45.5 -246.5,45.5 -246.5,234.5 -246.5,234.5 -246.5,240.5 -240.5,246.5 -234.5,246.5"/>
<text text-anchor="middle" x="-192" y="48.7" font-family="Times,serif" font-size="14.00">EventsController</text>
<polyline fill="none" stroke="black" points="-246.5,56.5 -137.5,56.5 "/>
<text text-anchor="start" x="-238.5" y="71.7" font-family="Times,serif" font-size="14.00">create</text>
<text text-anchor="start" x="-238.5" y="86.7" font-family="Times,serif" font-size="14.00">destroy</text>
<text text-anchor="start" x="-238.5" y="101.7" font-family="Times,serif" font-size="14.00">edit</text>
<text text-anchor="start" x="-238.5" y="116.7" font-family="Times,serif" font-size="14.00">index</text>
<text text-anchor="start" x="-238.5" y="131.7" font-family="Times,serif" font-size="14.00">new</text>
<text text-anchor="start" x="-238.5" y="146.7" font-family="Times,serif" font-size="14.00">show</text>
<text text-anchor="start" x="-238.5" y="161.7" font-family="Times,serif" font-size="14.00">update</text>
<polyline fill="none" stroke="black" points="-246.5,169.5 -137.5,169.5 "/>
<polyline fill="none" stroke="black" points="-246.5,193.5 -137.5,193.5 "/>
<text text-anchor="start" x="-238.5" y="208.7" font-family="Times,serif" font-size="14.00">_layout</text>
<text text-anchor="start" x="-238.5" y="223.7" font-family="Times,serif" font-size="14.00">event_params</text>
<text text-anchor="start" x="-238.5" y="238.7" font-family="Times,serif" font-size="14.00">set_event</text>
</g>
<!-- ApplicationController -->
<g id="node6" class="node"><title>ApplicationController</title>
<path fill="none" stroke="black" d="M278,-58C278,-58 390,-58 390,-58 396,-58 402,-64 402,-70 402,-70 402,-140 402,-140 402,-146 396,-152 390,-152 390,-152 278,-152 278,-152 272,-152 266,-146 266,-140 266,-140 266,-70 266,-70 266,-64 272,-58 278,-58"/>
<text text-anchor="middle" x="334" y="-136.8" font-family="Times,serif" font-size="14.00">ApplicationController</text>
<polyline fill="none" stroke="black" points="266,-129 402,-129 "/>
<polyline fill="none" stroke="black" points="266,-105 402,-105 "/>
<polyline fill="none" stroke="black" points="266,-81 402,-81 "/>
<text text-anchor="start" x="274" y="-65.8" font-family="Times,serif" font-size="14.00">_layout</text>
</g>
<!-- ChampionshipsController -->
<g id="node7" class="node"><title>ChampionshipsController</title>
<path fill="none" stroke="black" d="M-82.5,-171.5C-82.5,-171.5 50.5,-171.5 50.5,-171.5 56.5,-171.5 62.5,-177.5 62.5,-183.5 62.5,-183.5 62.5,-372.5 62.5,-372.5 62.5,-378.5 56.5,-384.5 50.5,-384.5 50.5,-384.5 -82.5,-384.5 -82.5,-384.5 -88.5,-384.5 -94.5,-378.5 -94.5,-372.5 -94.5,-372.5 -94.5,-183.5 -94.5,-183.5 -94.5,-177.5 -88.5,-171.5 -82.5,-171.5"/>
<text text-anchor="middle" x="-16" y="-369.3" font-family="Times,serif" font-size="14.00">ChampionshipsController</text>
<polyline fill="none" stroke="black" points="-94.5,-361.5 62.5,-361.5 "/>
<text text-anchor="start" x="-86.5" y="-346.3" font-family="Times,serif" font-size="14.00">create</text>
<text text-anchor="start" x="-86.5" y="-331.3" font-family="Times,serif" font-size="14.00">destroy</text>
<text text-anchor="start" x="-86.5" y="-316.3" font-family="Times,serif" font-size="14.00">edit</text>
<text text-anchor="start" x="-86.5" y="-301.3" font-family="Times,serif" font-size="14.00">index</text>
<text text-anchor="start" x="-86.5" y="-286.3" font-family="Times,serif" font-size="14.00">new</text>
<text text-anchor="start" x="-86.5" y="-271.3" font-family="Times,serif" font-size="14.00">show</text>
<text text-anchor="start" x="-86.5" y="-256.3" font-family="Times,serif" font-size="14.00">update</text>
<polyline fill="none" stroke="black" points="-94.5,-248.5 62.5,-248.5 "/>
<polyline fill="none" stroke="black" points="-94.5,-224.5 62.5,-224.5 "/>
<text text-anchor="start" x="-86.5" y="-209.3" font-family="Times,serif" font-size="14.00">_layout</text>
<text text-anchor="start" x="-86.5" y="-194.3" font-family="Times,serif" font-size="14.00">championship_params</text>
<text text-anchor="start" x="-86.5" y="-179.3" font-family="Times,serif" font-size="14.00">set_championship</text>
</g>
<!-- TeamsController -->
<g id="node8" class="node"><title>TeamsController</title>
<path fill="none" stroke="black" d="M107.5,-247.5C107.5,-247.5 192.5,-247.5 192.5,-247.5 198.5,-247.5 204.5,-253.5 204.5,-259.5 204.5,-259.5 204.5,-448.5 204.5,-448.5 204.5,-454.5 198.5,-460.5 192.5,-460.5 192.5,-460.5 107.5,-460.5 107.5,-460.5 101.5,-460.5 95.5,-454.5 95.5,-448.5 95.5,-448.5 95.5,-259.5 95.5,-259.5 95.5,-253.5 101.5,-247.5 107.5,-247.5"/>
<text text-anchor="middle" x="150" y="-445.3" font-family="Times,serif" font-size="14.00">TeamsController</text>
<polyline fill="none" stroke="black" points="95.5,-437.5 204.5,-437.5 "/>
<text text-anchor="start" x="103.5" y="-422.3" font-family="Times,serif" font-size="14.00">create</text>
<text text-anchor="start" x="103.5" y="-407.3" font-family="Times,serif" font-size="14.00">destroy</text>
<text text-anchor="start" x="103.5" y="-392.3" font-family="Times,serif" font-size="14.00">edit</text>
<text text-anchor="start" x="103.5" y="-377.3" font-family="Times,serif" font-size="14.00">index</text>
<text text-anchor="start" x="103.5" y="-362.3" font-family="Times,serif" font-size="14.00">new</text>
<text text-anchor="start" x="103.5" y="-347.3" font-family="Times,serif" font-size="14.00">show</text>
<text text-anchor="start" x="103.5" y="-332.3" font-family="Times,serif" font-size="14.00">update</text>
<polyline fill="none" stroke="black" points="95.5,-324.5 204.5,-324.5 "/>
<polyline fill="none" stroke="black" points="95.5,-300.5 204.5,-300.5 "/>
<text text-anchor="start" x="103.5" y="-285.3" font-family="Times,serif" font-size="14.00">_layout</text>
<text text-anchor="start" x="103.5" y="-270.3" font-family="Times,serif" font-size="14.00">set_team</text>
<text text-anchor="start" x="103.5" y="-255.3" font-family="Times,serif" font-size="14.00">team_params</text>
</g>
<!-- MatchesController -->
<g id="node9" class="node"><title>MatchesController</title>
<path fill="none" stroke="black" d="M107,94.5C107,94.5 217,94.5 217,94.5 223,94.5 229,88.5 229,82.5 229,82.5 229,-196.5 229,-196.5 229,-202.5 223,-208.5 217,-208.5 217,-208.5 107,-208.5 107,-208.5 101,-208.5 95,-202.5 95,-196.5 95,-196.5 95,82.5 95,82.5 95,88.5 101,94.5 107,94.5"/>
<text text-anchor="middle" x="162" y="-193.3" font-family="Times,serif" font-size="14.00">MatchesController</text>
<polyline fill="none" stroke="black" points="95,-185.5 229,-185.5 "/>
<text text-anchor="start" x="103" y="-170.3" font-family="Times,serif" font-size="14.00">create</text>
<text text-anchor="start" x="103" y="-155.3" font-family="Times,serif" font-size="14.00">destroy</text>
<text text-anchor="start" x="103" y="-140.3" font-family="Times,serif" font-size="14.00">details_matches_path</text>
<text text-anchor="start" x="103" y="-125.3" font-family="Times,serif" font-size="14.00">edit</text>
<text text-anchor="start" x="103" y="-110.3" font-family="Times,serif" font-size="14.00">generate</text>
<text text-anchor="start" x="103" y="-95.3" font-family="Times,serif" font-size="14.00">generate_form</text>
<text text-anchor="start" x="103" y="-80.3" font-family="Times,serif" font-size="14.00">generate_matches</text>
<text text-anchor="start" x="103" y="-65.3" font-family="Times,serif" font-size="14.00">index</text>
<text text-anchor="start" x="103" y="-50.3" font-family="Times,serif" font-size="14.00">new</text>
<text text-anchor="start" x="103" y="-35.3" font-family="Times,serif" font-size="14.00">show</text>
<text text-anchor="start" x="103" y="-20.3" font-family="Times,serif" font-size="14.00">update</text>
<polyline fill="none" stroke="black" points="95,-12.5 229,-12.5 "/>
<polyline fill="none" stroke="black" points="95,11.5 229,11.5 "/>
<text text-anchor="start" x="103" y="26.7" font-family="Times,serif" font-size="14.00">_layout</text>
<text text-anchor="start" x="103" y="41.7" font-family="Times,serif" font-size="14.00">get_dates_matche</text>
<text text-anchor="start" x="103" y="56.7" font-family="Times,serif" font-size="14.00">match_params</text>
<text text-anchor="start" x="103" y="71.7" font-family="Times,serif" font-size="14.00">set_match</text>
<text text-anchor="start" x="103" y="86.7" font-family="Times,serif" font-size="14.00">write_matches</text>
</g>
<!-- Users::OmniauthCallbacksController -->
<g id="node10" class="node"><title>Users::OmniauthCallbacksController</title>
<path fill="none" stroke="black" d="M259,-248C259,-248 453,-248 453,-248 459,-248 465,-254 465,-260 465,-260 465,-374 465,-374 465,-380 459,-386 453,-386 453,-386 259,-386 259,-386 253,-386 247,-380 247,-374 247,-374 247,-260 247,-260 247,-254 253,-248 259,-248"/>
<text text-anchor="middle" x="356" y="-370.8" font-family="Times,serif" font-size="14.00">Users::OmniauthCallbacksController</text>
<polyline fill="none" stroke="black" points="247,-363 465,-363 "/>
<text text-anchor="start" x="255" y="-347.8" font-family="Times,serif" font-size="14.00">custom_sign_up</text>
<text text-anchor="start" x="255" y="-332.8" font-family="Times,serif" font-size="14.00">facebook</text>
<text text-anchor="start" x="255" y="-317.8" font-family="Times,serif" font-size="14.00">failure</text>
<polyline fill="none" stroke="black" points="247,-310 465,-310 "/>
<polyline fill="none" stroke="black" points="247,-286 465,-286 "/>
<text text-anchor="start" x="255" y="-270.8" font-family="Times,serif" font-size="14.00">_layout</text>
<text text-anchor="start" x="255" y="-255.8" font-family="Times,serif" font-size="14.00">user_params</text>
</g>
</g>
</svg>
