<?xml version="1.0" encoding="UTF-8" standalone="no"?>
<!DOCTYPE svg PUBLIC "-//W3C//DTD SVG 1.1//EN"
 "http://www.w3.org/Graphics/SVG/1.1/DTD/svg11.dtd">
<!-- Generated by graphviz version 2.38.0 (20140413.2041)
 -->
<!-- Title: models_diagram Pages: 1 -->
<svg width="653pt" height="319pt"
 viewBox="0.00 0.00 653.39 319.00" xmlns="http://www.w3.org/2000/svg" xmlns:xlink="http://www.w3.org/1999/xlink">
<g id="graph0" class="graph" transform="scale(1 1) rotate(0) translate(4 315)">
<title>models_diagram</title>
<polygon fill="none" stroke="none" points="-4,4 -4,-315 649.394,-315 649.394,4 -4,4"/>
<!-- _diagram_info -->
<g id="node1" class="node"><title>_diagram_info</title>
<text text-anchor="start" x="8" y="-296.6" font-family="Times,serif" font-size="13.00">Models diagram</text>
<text text-anchor="start" x="8" y="-282.6" font-family="Times,serif" font-size="13.00">Date: Nov 03 2016 &#45; 19:55</text>
<text text-anchor="start" x="8" y="-268.6" font-family="Times,serif" font-size="13.00">Migration version: 20161022010308</text>
<text text-anchor="start" x="8" y="-254.6" font-family="Times,serif" font-size="13.00">Generated by RailRoady 1.5.2</text>
<text text-anchor="start" x="8" y="-240.6" font-family="Times,serif" font-size="13.00">http://railroady.prestonlee.com</text>
</g>
<!-- ApplicationRecord -->
<g id="node2" class="node"><title>ApplicationRecord</title>
<ellipse fill="none" stroke="black" cx="309" cy="-272" rx="77.1866" ry="18"/>
<text text-anchor="middle" x="309" y="-268.3" font-family="Times,serif" font-size="14.00">ApplicationRecord</text>
</g>
<!-- User -->
<g id="node3" class="node"><title>User</title>
<ellipse fill="none" stroke="black" cx="432" cy="-272" rx="27.0966" ry="18"/>
<text text-anchor="middle" x="432" y="-268.3" font-family="Times,serif" font-size="14.00">User</text>
</g>
<!-- Team -->
<g id="node6" class="node"><title>Team</title>
<ellipse fill="none" stroke="black" cx="381" cy="-178" rx="31.3957" ry="18"/>
<text text-anchor="middle" x="381" y="-174.3" font-family="Times,serif" font-size="14.00">Team</text>
</g>
<!-- User&#45;&gt;Team -->
<g id="edge2" class="edge"><title>User&#45;&gt;Team</title>
<path fill="none" stroke="#82041d" d="M419.183,-247.879C411.829,-234.613 402.587,-217.941 395.037,-204.322"/>
<ellipse fill="none" stroke="#82041d" cx="421.177" cy="-251.476" rx="4.00002" ry="4.00002"/>
<polygon fill="#82041d" stroke="#82041d" points="394.974,-204.207 394.061,-193.279 392.549,-199.834 390.125,-195.461 390.125,-195.461 390.125,-195.461 392.549,-199.834 386.189,-197.643 394.974,-204.207 394.974,-204.207"/>
</g>
<!-- Role -->
<g id="node10" class="node"><title>Role</title>
<ellipse fill="none" stroke="black" cx="457" cy="-178" rx="27.0966" ry="18"/>
<text text-anchor="middle" x="457" y="-174.3" font-family="Times,serif" font-size="14.00">Role</text>
</g>
<!-- User&#45;&gt;Role -->
<g id="edge1" class="edge"><title>User&#45;&gt;Role</title>
<path fill="none" stroke="#40424a" d="M439.216,-244.445C442.548,-232.183 446.494,-217.663 449.821,-205.418"/>
<polygon fill="#40424a" stroke="#40424a" points="439.208,-244.476 432.243,-252.946 437.897,-249.301 436.585,-254.126 436.585,-254.126 436.585,-254.126 437.897,-249.301 440.928,-255.306 439.208,-244.476 439.208,-244.476"/>
<polygon fill="#40424a" stroke="#40424a" points="449.821,-205.417 456.786,-196.947 451.132,-200.592 452.444,-195.767 452.444,-195.767 452.444,-195.767 451.132,-200.592 448.101,-194.587 449.821,-205.417 449.821,-205.417"/>
</g>
<!-- Match -->
<g id="node4" class="node"><title>Match</title>
<ellipse fill="none" stroke="black" cx="447" cy="-91" rx="33.5952" ry="18"/>
<text text-anchor="middle" x="447" y="-87.3" font-family="Times,serif" font-size="14.00">Match</text>
</g>
<!-- DetailsMatch -->
<g id="node5" class="node"><title>DetailsMatch</title>
<ellipse fill="none" stroke="black" cx="503" cy="-18" rx="58.4896" ry="18"/>
<text text-anchor="middle" x="503" y="-14.3" font-family="Times,serif" font-size="14.00">DetailsMatch</text>
</g>
<!-- Match&#45;&gt;DetailsMatch -->
<g id="edge3" class="edge"><title>Match&#45;&gt;DetailsMatch</title>
<path fill="none" stroke="#ab4405" d="M464.562,-67.7333C470.563,-60.1259 477.309,-51.5723 483.456,-43.7793"/>
<ellipse fill="none" stroke="#ab4405" cx="461.905" cy="-71.1021" rx="4.00002" ry="4.00002"/>
<polygon fill="#ab4405" stroke="#ab4405" points="483.633,-43.5541 493.36,-38.4892 486.73,-39.6283 489.826,-35.7024 489.826,-35.7024 489.826,-35.7024 486.73,-39.6283 486.293,-32.9156 483.633,-43.5541 483.633,-43.5541"/>
</g>
<!-- Team&#45;&gt;Match -->
<g id="edge4" class="edge"><title>Team&#45;&gt;Match</title>
<path fill="none" stroke="#a810a4" d="M412.88,-163.196C426.868,-156.446 441.021,-148.415 445,-142 449.203,-135.224 450.649,-126.88 450.775,-118.963"/>
<ellipse fill="none" stroke="#a810a4" cx="409.257" cy="-164.896" rx="4.00002" ry="4.00002"/>
<polygon fill="#a810a4" stroke="#a810a4" points="450.775,-118.958 454.796,-108.756 450.538,-113.964 450.301,-108.969 450.301,-108.969 450.301,-108.969 450.538,-113.964 445.806,-109.182 450.775,-118.958 450.775,-118.958"/>
<text text-anchor="middle" x="465" y="-130.8" font-family="Times,serif" font-size="14.00">locals</text>
</g>
<!-- Team&#45;&gt;Match -->
<g id="edge5" class="edge"><title>Team&#45;&gt;Match</title>
<path fill="none" stroke="#cdf9c0" d="M384.377,-152.076C386.428,-143.54 389.719,-134.309 395,-127 399.974,-120.116 406.749,-114.176 413.763,-109.245"/>
<ellipse fill="none" stroke="#cdf9c0" cx="383.567" cy="-156.041" rx="4.00001" ry="4.00001"/>
<polygon fill="#cdf9c0" stroke="#cdf9c0" points="414.24,-108.939 425.088,-107.331 418.45,-106.241 422.659,-103.543 422.659,-103.543 422.659,-103.543 418.45,-106.241 420.231,-99.7539 414.24,-108.939 414.24,-108.939"/>
<text text-anchor="middle" x="418" y="-130.8" font-family="Times,serif" font-size="14.00">visitants</text>
</g>
<!-- Team&#45;&gt;DetailsMatch -->
<g id="edge6" class="edge"><title>Team&#45;&gt;DetailsMatch</title>
<path fill="none" stroke="#3290fb" d="M380.069,-151.645C380.587,-128.484 384.97,-94.6457 404,-73 417.98,-57.0981 437.817,-44.9946 456.066,-36.3181"/>
<ellipse fill="none" stroke="#3290fb" cx="380.051" cy="-155.653" rx="4" ry="4"/>
<polygon fill="#3290fb" stroke="#3290fb" points="456.312,-36.2072 467.278,-36.1925 460.869,-34.1493 465.426,-32.0914 465.426,-32.0914 465.426,-32.0914 460.869,-34.1493 463.574,-27.9902 456.312,-36.2072 456.312,-36.2072"/>
</g>
<!-- Event -->
<g id="node7" class="node"><title>Event</title>
<ellipse fill="none" stroke="black" cx="530" cy="-91" rx="31.3957" ry="18"/>
<text text-anchor="middle" x="530" y="-87.3" font-family="Times,serif" font-size="14.00">Event</text>
</g>
<!-- Event&#45;&gt;DetailsMatch -->
<g id="edge7" class="edge"><title>Event&#45;&gt;DetailsMatch</title>
<path fill="none" stroke="#f10b8b" d="M520.657,-65.4318C518.253,-59.1089 515.653,-52.2732 513.207,-45.8414"/>
<ellipse fill="none" stroke="#f10b8b" cx="522.18" cy="-69.4352" rx="4.00001" ry="4.00001"/>
<polygon fill="#f10b8b" stroke="#f10b8b" points="513.095,-45.5454 513.746,-34.5989 511.318,-40.8719 509.54,-36.1984 509.54,-36.1984 509.54,-36.1984 511.318,-40.8719 505.334,-37.798 513.095,-45.5454 513.095,-45.5454"/>
</g>
<!-- Championship -->
<g id="node8" class="node"><title>Championship</title>
<ellipse fill="none" stroke="black" cx="565" cy="-178" rx="62.2891" ry="18"/>
<text text-anchor="middle" x="565" y="-174.3" font-family="Times,serif" font-size="14.00">Championship</text>
</g>
<!-- Championship&#45;&gt;Match -->
<g id="edge8" class="edge"><title>Championship&#45;&gt;Match</title>
<path fill="none" stroke="#e7c627" d="M536.047,-156.144C517.328,-142.66 493.104,-125.211 474.649,-111.917"/>
<ellipse fill="none" stroke="#e7c627" cx="539.559" cy="-158.674" rx="4.00002" ry="4.00002"/>
<polygon fill="#e7c627" stroke="#e7c627" points="474.473,-111.79 468.99,-102.294 470.416,-108.868 466.359,-105.945 466.359,-105.945 466.359,-105.945 470.416,-108.868 463.729,-109.597 474.473,-111.79 474.473,-111.79"/>
</g>
<!-- Championship&#45;&gt;Championship -->
<g id="edge9" class="edge"><title>Championship&#45;&gt;Championship</title>
<path fill="none" stroke="#b44ed1" d="M631.307,-183.907C639.793,-182.878 645.394,-180.909 645.394,-178 645.394,-175.355 640.765,-173.487 633.548,-172.397"/>
<ellipse fill="none" stroke="#b44ed1" cx="627.162" cy="-184.244" rx="4" ry="4"/>
<polygon fill="#b44ed1" stroke="#b44ed1" points="633.132,-172.358 623.592,-166.951 628.154,-171.895 623.175,-171.432 623.175,-171.432 623.175,-171.432 628.154,-171.895 622.758,-175.912 633.132,-172.358 633.132,-172.358"/>
</g>
<!-- Player -->
<g id="node9" class="node"><title>Player</title>
<ellipse fill="none" stroke="black" cx="612" cy="-91" rx="33.2948" ry="18"/>
<text text-anchor="middle" x="612" y="-87.3" font-family="Times,serif" font-size="14.00">Player</text>
</g>
<!-- Player&#45;&gt;DetailsMatch -->
<g id="edge10" class="edge"><title>Player&#45;&gt;DetailsMatch</title>
<path fill="none" stroke="#f964d7" d="M584.709,-72.2236C569.687,-62.4386 550.956,-50.2371 535.218,-39.9861"/>
<ellipse fill="none" stroke="#f964d7" cx="588.146" cy="-74.4622" rx="4.00002" ry="4.00002"/>
<polygon fill="#f964d7" stroke="#f964d7" points="535.205,-39.9776 529.282,-30.7489 531.015,-37.2486 526.826,-34.5195 526.826,-34.5195 526.826,-34.5195 531.015,-37.2486 524.37,-38.2902 535.205,-39.9776 535.205,-39.9776"/>
</g>
</g>
</svg>
