<?xml version="1.0" encoding="UTF-8" standalone="no"?>
<!DOCTYPE svg PUBLIC "-//W3C//DTD SVG 1.1//EN"
 "http://www.w3.org/Graphics/SVG/1.1/DTD/svg11.dtd">
<!-- Generated by graphviz version 2.38.0 (20140413.2041)
 -->
<!-- Title: models_diagram Pages: 1 -->
<svg width="892pt" height="981pt"
 viewBox="0.00 0.00 891.50 981.00" xmlns="http://www.w3.org/2000/svg" xmlns:xlink="http://www.w3.org/1999/xlink">
<g id="graph0" class="graph" transform="scale(1 1) rotate(0) translate(4 977)">
<title>models_diagram</title>
<polygon fill="none" stroke="none" points="-4,4 -4,-977 887.5,-977 887.5,4 -4,4"/>
<!-- _diagram_info -->
<g id="node1" class="node"><title>_diagram_info</title>
<text text-anchor="start" x="8" y="-839.1" font-family="Times,serif" font-size="13.00">Models diagram</text>
<text text-anchor="start" x="8" y="-825.1" font-family="Times,serif" font-size="13.00">Date: Nov 03 2016 &#45; 19:55</text>
<text text-anchor="start" x="8" y="-811.1" font-family="Times,serif" font-size="13.00">Migration version: 20161022010308</text>
<text text-anchor="start" x="8" y="-797.1" font-family="Times,serif" font-size="13.00">Generated by RailRoady 1.5.2</text>
<text text-anchor="start" x="8" y="-783.1" font-family="Times,serif" font-size="13.00">http://railroady.prestonlee.com</text>
</g>
<!-- ApplicationRecord -->
<g id="node2" class="node"><title>ApplicationRecord</title>
<ellipse fill="none" stroke="black" cx="309" cy="-814.5" rx="77.1866" ry="18"/>
<text text-anchor="middle" x="309" y="-810.8" font-family="Times,serif" font-size="14.00">ApplicationRecord</text>
</g>
<!-- User -->
<g id="node3" class="node"><title>User</title>
<path fill="none" stroke="black" d="M416,-656.5C416,-656.5 606,-656.5 606,-656.5 612,-656.5 618,-662.5 618,-668.5 618,-668.5 618,-960.5 618,-960.5 618,-966.5 612,-972.5 606,-972.5 606,-972.5 416,-972.5 416,-972.5 410,-972.5 404,-966.5 404,-960.5 404,-960.5 404,-668.5 404,-668.5 404,-662.5 410,-656.5 416,-656.5"/>
<text text-anchor="middle" x="511" y="-957.3" font-family="Times,serif" font-size="14.00">User</text>
<polyline fill="none" stroke="black" points="404,-949.5 618,-949.5 "/>
<text text-anchor="start" x="412" y="-934.3" font-family="Times,serif" font-size="14.00">id :int(11)</text>
<text text-anchor="start" x="412" y="-919.3" font-family="Times,serif" font-size="14.00">email :varchar(255)</text>
<text text-anchor="start" x="412" y="-904.3" font-family="Times,serif" font-size="14.00">encrypted_password :varchar(255)</text>
<text text-anchor="start" x="412" y="-889.3" font-family="Times,serif" font-size="14.00">reset_password_token :varchar(255)</text>
<text text-anchor="start" x="412" y="-874.3" font-family="Times,serif" font-size="14.00">reset_password_sent_at :datetime</text>
<text text-anchor="start" x="412" y="-859.3" font-family="Times,serif" font-size="14.00">remember_created_at :datetime</text>
<text text-anchor="start" x="412" y="-844.3" font-family="Times,serif" font-size="14.00">sign_in_count :int(11)</text>
<text text-anchor="start" x="412" y="-829.3" font-family="Times,serif" font-size="14.00">current_sign_in_at :datetime</text>
<text text-anchor="start" x="412" y="-814.3" font-family="Times,serif" font-size="14.00">last_sign_in_at :datetime</text>
<text text-anchor="start" x="412" y="-799.3" font-family="Times,serif" font-size="14.00">current_sign_in_ip :varchar(255)</text>
<text text-anchor="start" x="412" y="-784.3" font-family="Times,serif" font-size="14.00">last_sign_in_ip :varchar(255)</text>
<text text-anchor="start" x="412" y="-769.3" font-family="Times,serif" font-size="14.00">first_name :varchar(255)</text>
<text text-anchor="start" x="412" y="-754.3" font-family="Times,serif" font-size="14.00">last_name :varchar(255)</text>
<text text-anchor="start" x="412" y="-739.3" font-family="Times,serif" font-size="14.00">number_id :varchar(255)</text>
<text text-anchor="start" x="412" y="-724.3" font-family="Times,serif" font-size="14.00">created_at :datetime</text>
<text text-anchor="start" x="412" y="-709.3" font-family="Times,serif" font-size="14.00">updated_at :datetime</text>
<text text-anchor="start" x="412" y="-694.3" font-family="Times,serif" font-size="14.00">provider :varchar(255)</text>
<text text-anchor="start" x="412" y="-679.3" font-family="Times,serif" font-size="14.00">uid :varchar(255)</text>
<text text-anchor="start" x="412" y="-664.3" font-family="Times,serif" font-size="14.00">name :varchar(255)</text>
</g>
<!-- Team -->
<g id="node6" class="node"><title>Team</title>
<path fill="none" stroke="black" d="M315.5,-460C315.5,-460 446.5,-460 446.5,-460 452.5,-460 458.5,-466 458.5,-472 458.5,-472 458.5,-584 458.5,-584 458.5,-590 452.5,-596 446.5,-596 446.5,-596 315.5,-596 315.5,-596 309.5,-596 303.5,-590 303.5,-584 303.5,-584 303.5,-472 303.5,-472 303.5,-466 309.5,-460 315.5,-460"/>
<text text-anchor="middle" x="381" y="-580.8" font-family="Times,serif" font-size="14.00">Team</text>
<polyline fill="none" stroke="black" points="303.5,-573 458.5,-573 "/>
<text text-anchor="start" x="311.5" y="-557.8" font-family="Times,serif" font-size="14.00">id :int(11)</text>
<text text-anchor="start" x="311.5" y="-542.8" font-family="Times,serif" font-size="14.00">name :varchar(255)</text>
<text text-anchor="start" x="311.5" y="-527.8" font-family="Times,serif" font-size="14.00">curso :varchar(255)</text>
<text text-anchor="start" x="311.5" y="-512.8" font-family="Times,serif" font-size="14.00">user_id :int(11)</text>
<text text-anchor="start" x="311.5" y="-497.8" font-family="Times,serif" font-size="14.00">created_at :datetime</text>
<text text-anchor="start" x="311.5" y="-482.8" font-family="Times,serif" font-size="14.00">updated_at :datetime</text>
<text text-anchor="start" x="311.5" y="-467.8" font-family="Times,serif" font-size="14.00">championship_id :int(11)</text>
</g>
<!-- User&#45;&gt;Team -->
<g id="edge2" class="edge"><title>User&#45;&gt;Team</title>
<path fill="none" stroke="#9e9f0d" d="M435.78,-648.884C428.915,-633.859 422.206,-619.177 415.969,-605.529"/>
<ellipse fill="none" stroke="#9e9f0d" cx="437.493" cy="-652.634" rx="4.00002" ry="4.00002"/>
<polygon fill="#9e9f0d" stroke="#9e9f0d" points="415.887,-605.349 415.824,-594.383 413.809,-600.801 411.731,-596.254 411.731,-596.254 411.731,-596.254 413.809,-600.801 407.638,-598.124 415.887,-605.349 415.887,-605.349"/>
</g>
<!-- Role -->
<g id="node10" class="node"><title>Role</title>
<path fill="none" stroke="black" d="M489,-467.5C489,-467.5 635,-467.5 635,-467.5 641,-467.5 647,-473.5 647,-479.5 647,-479.5 647,-576.5 647,-576.5 647,-582.5 641,-588.5 635,-588.5 635,-588.5 489,-588.5 489,-588.5 483,-588.5 477,-582.5 477,-576.5 477,-576.5 477,-479.5 477,-479.5 477,-473.5 483,-467.5 489,-467.5"/>
<text text-anchor="middle" x="562" y="-573.3" font-family="Times,serif" font-size="14.00">Role</text>
<polyline fill="none" stroke="black" points="477,-565.5 647,-565.5 "/>
<text text-anchor="start" x="485" y="-550.3" font-family="Times,serif" font-size="14.00">id :int(11)</text>
<text text-anchor="start" x="485" y="-535.3" font-family="Times,serif" font-size="14.00">name :varchar(255)</text>
<text text-anchor="start" x="485" y="-520.3" font-family="Times,serif" font-size="14.00">resource_type :varchar(255)</text>
<text text-anchor="start" x="485" y="-505.3" font-family="Times,serif" font-size="14.00">resource_id :int(11)</text>
<text text-anchor="start" x="485" y="-490.3" font-family="Times,serif" font-size="14.00">created_at :datetime</text>
<text text-anchor="start" x="485" y="-475.3" font-family="Times,serif" font-size="14.00">updated_at :datetime</text>
</g>
<!-- User&#45;&gt;Role -->
<g id="edge1" class="edge"><title>User&#45;&gt;Role</title>
<path fill="none" stroke="#51a4a7" d="M540.995,-646.176C543.976,-629.547 546.872,-613.391 549.513,-598.655"/>
<polygon fill="#51a4a7" stroke="#51a4a7" points="540.95,-646.429 534.756,-655.478 540.067,-651.35 539.185,-656.272 539.185,-656.272 539.185,-656.272 540.067,-651.35 543.614,-657.066 540.95,-646.429 540.95,-646.429"/>
<polygon fill="#51a4a7" stroke="#51a4a7" points="549.535,-598.535 555.729,-589.486 550.417,-593.614 551.3,-588.692 551.3,-588.692 551.3,-588.692 550.417,-593.614 546.87,-587.898 549.535,-598.535 549.535,-598.535"/>
</g>
<!-- Match -->
<g id="node4" class="node"><title>Match</title>
<path fill="none" stroke="black" d="M405,-197C405,-197 551,-197 551,-197 557,-197 563,-203 563,-209 563,-209 563,-366 563,-366 563,-372 557,-378 551,-378 551,-378 405,-378 405,-378 399,-378 393,-372 393,-366 393,-366 393,-209 393,-209 393,-203 399,-197 405,-197"/>
<text text-anchor="middle" x="478" y="-362.8" font-family="Times,serif" font-size="14.00">Match</text>
<polyline fill="none" stroke="black" points="393,-355 563,-355 "/>
<text text-anchor="start" x="401" y="-339.8" font-family="Times,serif" font-size="14.00">id :int(11)</text>
<text text-anchor="start" x="401" y="-324.8" font-family="Times,serif" font-size="14.00">local_id :int(11)</text>
<text text-anchor="start" x="401" y="-309.8" font-family="Times,serif" font-size="14.00">visitant_id :int(11)</text>
<text text-anchor="start" x="401" y="-294.8" font-family="Times,serif" font-size="14.00">match_date :datetime</text>
<text text-anchor="start" x="401" y="-279.8" font-family="Times,serif" font-size="14.00">date_number :int(11)</text>
<text text-anchor="start" x="401" y="-264.8" font-family="Times,serif" font-size="14.00">championship_id :int(11)</text>
<text text-anchor="start" x="401" y="-249.8" font-family="Times,serif" font-size="14.00">created_at :datetime</text>
<text text-anchor="start" x="401" y="-234.8" font-family="Times,serif" font-size="14.00">updated_at :datetime</text>
<text text-anchor="start" x="401" y="-219.8" font-family="Times,serif" font-size="14.00">goals_local_team :int(11)</text>
<text text-anchor="start" x="401" y="-204.8" font-family="Times,serif" font-size="14.00">goals_visitant_team :int(11)</text>
</g>
<!-- DetailsMatch -->
<g id="node5" class="node"><title>DetailsMatch</title>
<path fill="none" stroke="black" d="M544.5,-0.5C544.5,-0.5 651.5,-0.5 651.5,-0.5 657.5,-0.5 663.5,-6.5 663.5,-12.5 663.5,-12.5 663.5,-139.5 663.5,-139.5 663.5,-145.5 657.5,-151.5 651.5,-151.5 651.5,-151.5 544.5,-151.5 544.5,-151.5 538.5,-151.5 532.5,-145.5 532.5,-139.5 532.5,-139.5 532.5,-12.5 532.5,-12.5 532.5,-6.5 538.5,-0.5 544.5,-0.5"/>
<text text-anchor="middle" x="598" y="-136.3" font-family="Times,serif" font-size="14.00">DetailsMatch</text>
<polyline fill="none" stroke="black" points="532.5,-128.5 663.5,-128.5 "/>
<text text-anchor="start" x="540.5" y="-113.3" font-family="Times,serif" font-size="14.00">id :int(11)</text>
<text text-anchor="start" x="540.5" y="-98.3" font-family="Times,serif" font-size="14.00">match_id :int(11)</text>
<text text-anchor="start" x="540.5" y="-83.3" font-family="Times,serif" font-size="14.00">team_id :int(11)</text>
<text text-anchor="start" x="540.5" y="-68.3" font-family="Times,serif" font-size="14.00">player_id :int(11)</text>
<text text-anchor="start" x="540.5" y="-53.3" font-family="Times,serif" font-size="14.00">event_id :int(11)</text>
<text text-anchor="start" x="540.5" y="-38.3" font-family="Times,serif" font-size="14.00">minute :int(11)</text>
<text text-anchor="start" x="540.5" y="-23.3" font-family="Times,serif" font-size="14.00">created_at :datetime</text>
<text text-anchor="start" x="540.5" y="-8.3" font-family="Times,serif" font-size="14.00">updated_at :datetime</text>
</g>
<!-- Match&#45;&gt;DetailsMatch -->
<g id="edge3" class="edge"><title>Match&#45;&gt;DetailsMatch</title>
<path fill="none" stroke="#094e7a" d="M533.453,-189.688C539.038,-179.938 544.675,-170.096 550.171,-160.502"/>
<ellipse fill="none" stroke="#094e7a" cx="531.401" cy="-193.271" rx="4.00002" ry="4.00002"/>
<polygon fill="#094e7a" stroke="#094e7a" points="550.202,-160.448 559.077,-154.007 552.687,-156.109 555.172,-151.771 555.172,-151.771 555.172,-151.771 552.687,-156.109 551.267,-149.534 550.202,-160.448 550.202,-160.448"/>
</g>
<!-- Team&#45;&gt;Match -->
<g id="edge4" class="edge"><title>Team&#45;&gt;Match</title>
<path fill="none" stroke="#adf768" d="M435.932,-452.755C442.4,-441.808 448.342,-430.376 453,-419 457.016,-409.193 460.395,-398.704 463.237,-388.093"/>
<ellipse fill="none" stroke="#adf768" cx="433.689" cy="-456.454" rx="4.00002" ry="4.00002"/>
<polygon fill="#adf768" stroke="#adf768" points="463.254,-388.026 470.063,-379.43 464.477,-383.178 465.699,-378.33 465.699,-378.33 465.699,-378.33 464.477,-383.178 461.336,-377.229 463.254,-388.026 463.254,-388.026"/>
<text text-anchor="middle" x="474" y="-407.8" font-family="Times,serif" font-size="14.00">locals</text>
</g>
<!-- Team&#45;&gt;Match -->
<g id="edge5" class="edge"><title>Team&#45;&gt;Match</title>
<path fill="none" stroke="#ae586e" d="M389.502,-452.024C392.681,-435.847 397.038,-419.083 403,-404 405.196,-398.445 407.678,-392.874 410.368,-387.343"/>
<ellipse fill="none" stroke="#ae586e" cx="388.766" cy="-455.976" rx="4.00001" ry="4.00001"/>
<polygon fill="#ae586e" stroke="#ae586e" points="410.545,-386.996 419.091,-380.124 412.813,-382.539 415.081,-378.083 415.081,-378.083 415.081,-378.083 412.813,-382.539 411.07,-376.042 410.545,-386.996 410.545,-386.996"/>
<text text-anchor="middle" x="426" y="-407.8" font-family="Times,serif" font-size="14.00">visitants</text>
</g>
<!-- Team&#45;&gt;DetailsMatch -->
<g id="edge6" class="edge"><title>Team&#45;&gt;DetailsMatch</title>
<path fill="none" stroke="#6fd8ab" d="M360.831,-451.65C345.88,-378.868 335.514,-268.304 384,-189 414.196,-139.612 474.054,-110.92 522.803,-94.9656"/>
<ellipse fill="none" stroke="#6fd8ab" cx="361.749" cy="-455.979" rx="4.00001" ry="4.00001"/>
<polygon fill="#6fd8ab" stroke="#6fd8ab" points="522.856,-94.9491 533.746,-96.2339 527.624,-93.4456 532.393,-91.9421 532.393,-91.9421 532.393,-91.9421 527.624,-93.4456 531.04,-87.6504 522.856,-94.9491 522.856,-94.9491"/>
</g>
<!-- Event -->
<g id="node7" class="node"><title>Event</title>
<path fill="none" stroke="black" d="M593.5,-242C593.5,-242 700.5,-242 700.5,-242 706.5,-242 712.5,-248 712.5,-254 712.5,-254 712.5,-321 712.5,-321 712.5,-327 706.5,-333 700.5,-333 700.5,-333 593.5,-333 593.5,-333 587.5,-333 581.5,-327 581.5,-321 581.5,-321 581.5,-254 581.5,-254 581.5,-248 587.5,-242 593.5,-242"/>
<text text-anchor="middle" x="647" y="-317.8" font-family="Times,serif" font-size="14.00">Event</text>
<polyline fill="none" stroke="black" points="581.5,-310 712.5,-310 "/>
<text text-anchor="start" x="589.5" y="-294.8" font-family="Times,serif" font-size="14.00">id :int(11)</text>
<text text-anchor="start" x="589.5" y="-279.8" font-family="Times,serif" font-size="14.00">name :varchar(255)</text>
<text text-anchor="start" x="589.5" y="-264.8" font-family="Times,serif" font-size="14.00">created_at :datetime</text>
<text text-anchor="start" x="589.5" y="-249.8" font-family="Times,serif" font-size="14.00">updated_at :datetime</text>
</g>
<!-- Event&#45;&gt;DetailsMatch -->
<g id="edge7" class="edge"><title>Event&#45;&gt;DetailsMatch</title>
<path fill="none" stroke="#4ceb5b" d="M634.705,-233.933C629.591,-212.068 623.524,-186.13 617.811,-161.703"/>
<ellipse fill="none" stroke="#4ceb5b" cx="635.637" cy="-237.919" rx="4.00001" ry="4.00001"/>
<polygon fill="#4ceb5b" stroke="#4ceb5b" points="617.751,-161.444 619.855,-150.682 616.612,-156.575 615.473,-151.707 615.473,-151.707 615.473,-151.707 616.612,-156.575 611.091,-152.732 617.751,-161.444 617.751,-161.444"/>
</g>
<!-- Championship -->
<g id="node8" class="node"><title>Championship</title>
<path fill="none" stroke="black" d="M677.5,-437.5C677.5,-437.5 850.5,-437.5 850.5,-437.5 856.5,-437.5 862.5,-443.5 862.5,-449.5 862.5,-449.5 862.5,-606.5 862.5,-606.5 862.5,-612.5 856.5,-618.5 850.5,-618.5 850.5,-618.5 677.5,-618.5 677.5,-618.5 671.5,-618.5 665.5,-612.5 665.5,-606.5 665.5,-606.5 665.5,-449.5 665.5,-449.5 665.5,-443.5 671.5,-437.5 677.5,-437.5"/>
<text text-anchor="middle" x="764" y="-603.3" font-family="Times,serif" font-size="14.00">Championship</text>
<polyline fill="none" stroke="black" points="665.5,-595.5 862.5,-595.5 "/>
<text text-anchor="start" x="673.5" y="-580.3" font-family="Times,serif" font-size="14.00">id :int(11)</text>
<text text-anchor="start" x="673.5" y="-565.3" font-family="Times,serif" font-size="14.00">name :varchar(255)</text>
<text text-anchor="start" x="673.5" y="-550.3" font-family="Times,serif" font-size="14.00">quantity_min_teams :int(11)</text>
<text text-anchor="start" x="673.5" y="-535.3" font-family="Times,serif" font-size="14.00">date_initial_inscription :datetime</text>
<text text-anchor="start" x="673.5" y="-520.3" font-family="Times,serif" font-size="14.00">date_end_inscription :datetime</text>
<text text-anchor="start" x="673.5" y="-505.3" font-family="Times,serif" font-size="14.00">created_at :datetime</text>
<text text-anchor="start" x="673.5" y="-490.3" font-family="Times,serif" font-size="14.00">updated_at :datetime</text>
<text text-anchor="start" x="673.5" y="-475.3" font-family="Times,serif" font-size="14.00">match_duration :varchar(255)</text>
<text text-anchor="start" x="673.5" y="-460.3" font-family="Times,serif" font-size="14.00">matches_simultanius :int(11)</text>
<text text-anchor="start" x="673.5" y="-445.3" font-family="Times,serif" font-size="14.00">game_days :varchar(255)</text>
</g>
<!-- Championship&#45;&gt;Match -->
<g id="edge8" class="edge"><title>Championship&#45;&gt;Match</title>
<path fill="none" stroke="#216a34" d="M658.598,-438.877C657.73,-438.246 656.864,-437.621 656,-437 620.834,-411.743 606.81,-413.045 573,-386 572.273,-385.419 571.547,-384.832 570.82,-384.241"/>
<ellipse fill="none" stroke="#216a34" cx="662.054" cy="-441.421" rx="4.00002" ry="4.00002"/>
<polygon fill="#216a34" stroke="#216a34" points="570.711,-384.15 565.932,-374.281 566.877,-380.941 563.043,-377.731 563.043,-377.731 563.043,-377.731 566.877,-380.941 560.155,-381.182 570.711,-384.15 570.711,-384.15"/>
</g>
<!-- Championship&#45;&gt;Championship -->
<g id="edge9" class="edge"><title>Championship&#45;&gt;Championship</title>
<path fill="none" stroke="#1fe7c2" d="M870.387,-541.94C876.711,-538.611 880.5,-533.964 880.5,-528 880.5,-522.544 877.328,-518.19 871.946,-514.939"/>
<ellipse fill="none" stroke="#1fe7c2" cx="866.308" cy="-543.559" rx="4.00001" ry="4.00001"/>
<polygon fill="#1fe7c2" stroke="#1fe7c2" points="871.795,-514.875 864.35,-506.823 867.193,-512.92 862.591,-510.965 862.591,-510.965 862.591,-510.965 867.193,-512.92 860.831,-515.107 871.795,-514.875 871.795,-514.875"/>
</g>
<!-- Player -->
<g id="node9" class="node"><title>Player</title>
<path fill="none" stroke="black" d="M742.5,-189.5C742.5,-189.5 871.5,-189.5 871.5,-189.5 877.5,-189.5 883.5,-195.5 883.5,-201.5 883.5,-201.5 883.5,-373.5 883.5,-373.5 883.5,-379.5 877.5,-385.5 871.5,-385.5 871.5,-385.5 742.5,-385.5 742.5,-385.5 736.5,-385.5 730.5,-379.5 730.5,-373.5 730.5,-373.5 730.5,-201.5 730.5,-201.5 730.5,-195.5 736.5,-189.5 742.5,-189.5"/>
<text text-anchor="middle" x="807" y="-370.3" font-family="Times,serif" font-size="14.00">Player</text>
<polyline fill="none" stroke="black" points="730.5,-362.5 883.5,-362.5 "/>
<text text-anchor="start" x="738.5" y="-347.3" font-family="Times,serif" font-size="14.00">id :int(11)</text>
<text text-anchor="start" x="738.5" y="-332.3" font-family="Times,serif" font-size="14.00">first_name :varchar(255)</text>
<text text-anchor="start" x="738.5" y="-317.3" font-family="Times,serif" font-size="14.00">last_name :varchar(255)</text>
<text text-anchor="start" x="738.5" y="-302.3" font-family="Times,serif" font-size="14.00">telefono :varchar(255)</text>
<text text-anchor="start" x="738.5" y="-287.3" font-family="Times,serif" font-size="14.00">email :varchar(255)</text>
<text text-anchor="start" x="738.5" y="-272.3" font-family="Times,serif" font-size="14.00">movil :varchar(255)</text>
<text text-anchor="start" x="738.5" y="-257.3" font-family="Times,serif" font-size="14.00">number_id :varchar(255)</text>
<text text-anchor="start" x="738.5" y="-242.3" font-family="Times,serif" font-size="14.00">team_id :int(11)</text>
<text text-anchor="start" x="738.5" y="-227.3" font-family="Times,serif" font-size="14.00">created_at :datetime</text>
<text text-anchor="start" x="738.5" y="-212.3" font-family="Times,serif" font-size="14.00">updated_at :datetime</text>
<text text-anchor="start" x="738.5" y="-197.3" font-family="Times,serif" font-size="14.00">tshirt_number :int(11)</text>
</g>
<!-- Player&#45;&gt;DetailsMatch -->
<g id="edge10" class="edge"><title>Player&#45;&gt;DetailsMatch</title>
<path fill="none" stroke="#6ef8b5" d="M724.588,-191.648C723.723,-190.759 722.861,-189.876 722,-189 706.132,-172.85 688.414,-156.138 671.449,-140.707"/>
<ellipse fill="none" stroke="#6ef8b5" cx="727.538" cy="-194.719" rx="4.00002" ry="4.00002"/>
<polygon fill="#6ef8b5" stroke="#6ef8b5" points="671.133,-140.421 666.735,-130.376 667.425,-137.068 663.717,-133.714 663.717,-133.714 663.717,-133.714 667.425,-137.068 660.698,-137.051 671.133,-140.421 671.133,-140.421"/>
</g>
</g>
</svg>
